<svg width="19" height="18" viewBox="0 0 19 18" fill="none" xmlns="http://www.w3.org/2000/svg">
<g id="Iconly/Light-Outline/Search">
<g id="Search">
<g id="Group 3">
<mask id="mask0_1_171" style="mask-type:luminance" maskUnits="userSpaceOnUse" x="2" y="1" width="15" height="16">
<path id="Clip 2" fill-rule="evenodd" clip-rule="evenodd" d="M2 1.5H16.6076V16.1077H2V1.5Z" fill="white"/>
</mask>
<g mask="url(#mask0_1_171)">
<path id="Fill 1" fill-rule="evenodd" clip-rule="evenodd" d="M9.3041 2.625C5.89685 2.625 3.12485 5.39625 3.12485 8.8035C3.12485 12.2107 5.89685 14.9827 9.3041 14.9827C12.7106 14.9827 15.4826 12.2107 15.4826 8.8035C15.4826 5.39625 12.7106 2.625 9.3041 2.625ZM9.3041 16.1077C5.2766 16.1077 1.99985 12.831 1.99985 8.8035C1.99985 4.776 5.2766 1.5 9.3041 1.5C13.3316 1.5 16.6076 4.776 16.6076 8.8035C16.6076 12.831 13.3316 16.1077 9.3041 16.1077Z" fill="#ADADAD"/>
</g>
</g>
<g id="Group 6">
<mask id="mask1_1_171" style="mask-type:luminance" maskUnits="userSpaceOnUse" x="13" y="13" width="5" height="5">
<path id="Clip 5" fill-rule="evenodd" clip-rule="evenodd" d="M13.43 13.2802H17.198V17.0413H13.43V13.2802Z" fill="white"/>
</mask>
<g mask="url(#mask1_1_171)">
<path id="Fill 4" fill-rule="evenodd" clip-rule="evenodd" d="M16.6356 17.0413C16.4924 17.0413 16.3484 16.9865 16.2381 16.877L13.5951 14.2415C13.3754 14.0218 13.3746 13.6655 13.5944 13.4458C13.8134 13.2245 14.1696 13.226 14.3901 13.4443L17.0331 16.0805C17.2529 16.3003 17.2536 16.6558 17.0339 16.8755C16.9244 16.9865 16.7796 17.0413 16.6356 17.0413Z" fill="#ADADAD"/>
</g>
</g>
</g>
</g>
</svg>
