<svg width="10" height="11" viewBox="0 0 10 11" fill="none" xmlns="http://www.w3.org/2000/svg">
<g id="Iconly/Bold/Star">
<g id="Star">
<path id="Star_2" d="M7.46604 6.40077C7.35813 6.50535 7.30854 6.6566 7.33313 6.80494L7.70354 8.85494C7.73479 9.02869 7.66146 9.20452 7.51604 9.30494C7.37354 9.4091 7.18396 9.4216 7.02854 9.33827L5.18313 8.37577C5.11896 8.3416 5.04771 8.32327 4.97479 8.32119H4.86188C4.82271 8.32702 4.78438 8.33952 4.74938 8.35869L2.90354 9.32577C2.81229 9.3716 2.70896 9.38785 2.60771 9.3716C2.36104 9.32494 2.19646 9.08994 2.23688 8.84202L2.60771 6.79202C2.63229 6.64244 2.58271 6.49035 2.47479 6.3841L0.970211 4.92577C0.844378 4.80369 0.800628 4.62035 0.858128 4.45494C0.913961 4.28994 1.05646 4.16952 1.22854 4.14244L3.29938 3.84202C3.45688 3.82577 3.59521 3.72994 3.66604 3.58827L4.57854 1.71744C4.60021 1.67577 4.62813 1.63744 4.66188 1.60494L4.69938 1.57577C4.71896 1.5541 4.74146 1.53619 4.76646 1.5216L4.81188 1.50494L4.88271 1.47577H5.05813C5.21479 1.49202 5.35271 1.58577 5.42479 1.72577L6.34938 3.58827C6.41604 3.72452 6.54563 3.8191 6.69521 3.84202L8.76604 4.14244C8.94104 4.16744 9.08729 4.28827 9.14521 4.45494C9.19979 4.62202 9.15271 4.80535 9.02438 4.92577L7.46604 6.40077Z" fill="#199A8E"/>
</g>
</g>
</svg>
