<svg width="10" height="10" viewBox="0 0 10 10" fill="none" xmlns="http://www.w3.org/2000/svg">
<g id="Iconly/Bold/Location">
<g id="Location">
<path id="Location_2" fill-rule="evenodd" clip-rule="evenodd" d="M1.45834 4.29905C1.45834 2.38243 3.05996 0.833313 4.99728 0.833313C6.94006 0.833313 8.54168 2.38243 8.54168 4.29905C8.54168 5.26485 8.19043 6.16149 7.6123 6.92147C6.97451 7.75978 6.18841 8.49017 5.30357 9.06349C5.10106 9.19599 4.91829 9.20599 4.69603 9.06349C3.80615 8.49017 3.02005 7.75978 2.38772 6.92147C1.80917 6.16149 1.45834 5.26485 1.45834 4.29905ZM3.83094 4.40695C3.83094 5.04902 4.35487 5.55401 4.99728 5.55401C5.64011 5.55401 6.16908 5.04902 6.16908 4.40695C6.16908 3.76989 5.64011 3.24032 4.99728 3.24032C4.35487 3.24032 3.83094 3.76989 3.83094 4.40695Z" fill="#ADADAD"/>
</g>
</g>
</svg>
