<svg width="32" height="32" viewBox="0 0 32 32" fill="none" xmlns="http://www.w3.org/2000/svg">
<g id="Icon / Pharmacy" clip-path="url(#clip0_1_143)">
<path id="Vector" d="M6 16.6667L16.6667 6C17.9043 4.76232 19.583 4.067 21.3333 4.067C23.0837 4.067 24.7623 4.76232 26 6C27.2377 7.23768 27.933 8.91633 27.933 10.6667C27.933 12.417 27.2377 14.0957 26 15.3333L15.3333 26C14.0957 27.2377 12.417 27.933 10.6667 27.933C8.91633 27.933 7.23768 27.2377 6 26C4.76232 24.7623 4.067 23.0837 4.067 21.3333C4.067 19.583 4.76232 17.9043 6 16.6667" stroke="#199A8E" stroke-width="2" stroke-linecap="round" stroke-linejoin="round"/>
<path id="Vector_2" d="M11.3333 11.3333L20.6667 20.6667" stroke="#199A8E" stroke-width="2" stroke-linecap="round" stroke-linejoin="round"/>
</g>
<defs>
<clipPath id="clip0_1_143">
<rect width="32" height="32" fill="white"/>
</clipPath>
</defs>
</svg>
