<svg width="36" height="39" viewBox="0 0 36 39" fill="none" xmlns="http://www.w3.org/2000/svg">
<path id="Star 5" d="M15.5366 2.56971C16.0419 -0.156052 19.9475 -0.15605 20.4528 2.56972L20.6965 3.88445C21.058 5.83427 23.437 6.60726 24.8755 5.24227L25.8454 4.32188C27.8564 2.41369 31.0161 4.70939 29.8228 7.21158L29.2472 8.41847C28.3935 10.2084 29.8638 12.2321 31.8299 11.9733L33.1556 11.7988C35.9041 11.4371 37.111 15.1516 34.6748 16.4744L33.4997 17.1125C31.757 18.0588 31.757 20.5602 33.4997 21.5065L34.6748 22.1446C37.111 23.4674 35.9041 27.1819 33.1556 26.8202L31.8299 26.6457C29.8638 26.3869 28.3935 28.4106 29.2472 30.2005L29.8228 31.4074C31.0161 33.9096 27.8564 36.2053 25.8454 34.2971L24.8755 33.3767C23.437 32.0117 21.058 32.7847 20.6965 34.7346L20.4528 36.0493C19.9475 38.7751 16.0419 38.7751 15.5366 36.0493L15.2929 34.7346C14.9314 32.7847 12.5524 32.0117 11.1139 33.3767L10.144 34.2971C8.13301 36.2053 4.97327 33.9096 6.16664 31.4074L6.74225 30.2005C7.59591 28.4106 6.12561 26.3869 4.15952 26.6457L2.83382 26.8202C0.0853202 27.1819 -1.12159 23.4674 1.31462 22.1446L2.48969 21.5065C4.23239 20.5602 4.23239 18.0588 2.48969 17.1125L1.31462 16.4744C-1.12159 15.1516 0.0853214 11.4371 2.83382 11.7988L4.15953 11.9733C6.12562 12.2321 7.59591 10.2084 6.74225 8.41847L6.16664 7.21158C4.97327 4.70938 8.13301 2.41369 10.144 4.32188L11.1139 5.24227C12.5524 6.60726 14.9314 5.83427 15.2929 3.88445L15.5366 2.56971Z" fill="url(#paint0_linear_595_8209)"/>
<defs>
<linearGradient id="paint0_linear_595_8209" x1="17.9946" y1="-10.6904" x2="17.4946" y2="50.3096" gradientUnits="userSpaceOnUse">
<stop stop-color="#3E36B5"/>
<stop offset="1" stop-color="#9747FF"/>
</linearGradient>
</defs>
</svg>
